<?xml version="1.0" encoding="utf-8"?>
<!-- Generator: Adobe Illustrator 16.0.4, SVG Export Plug-In . SVG Version: 6.00 Build 0)  -->
<!DOCTYPE svg PUBLIC "-//W3C//DTD SVG 1.1//EN" "http://www.w3.org/Graphics/SVG/1.1/DTD/svg11.dtd">
<svg version="1.1" id="text" xmlns="http://www.w3.org/2000/svg" xmlns:xlink="http://www.w3.org/1999/xlink" x="0px" y="0px"
	 width="395.928px" height="112.4px" viewBox="0 0 395.928 112.4" enable-background="new 0 0 395.928 112.4" xml:space="preserve">
<g>
	<path fill="#FFFFFF" d="M30.234,2.043l-0.188,8.113c-1.635-1.069-3.38-1.879-5.235-2.43c-1.855-0.55-3.772-0.825-5.754-0.825
		c-3.365,0-5.966,0.833-7.806,2.5c-1.84,1.666-2.761,4.01-2.761,7.027c0,3.837,3.35,8.035,10.048,12.594
		c1.226,0.818,2.169,1.462,2.83,1.935c4.717,3.239,7.971,6.25,9.764,9.032c1.793,2.781,2.688,6.045,2.688,9.786
		c0,5.755-1.832,10.394-5.494,13.914c-3.663,3.522-8.467,5.283-14.409,5.283c-2.453,0-4.819-0.268-7.1-0.802
		c-2.279-0.534-4.395-1.321-6.344-2.358l0.802-8.018c1.917,1.384,3.986,2.437,6.203,3.16s4.488,1.085,6.815,1.085
		c3.458,0,6.146-0.927,8.064-2.783c1.917-1.855,2.877-4.434,2.877-7.735c0-2.672-0.676-4.982-2.027-6.934
		c-1.354-1.949-4.669-4.7-9.952-8.254c-5.409-3.679-8.97-6.784-10.684-9.315C0.856,24.488,0,21.57,0,18.269
		c0-5.408,1.713-9.802,5.141-13.183c3.427-3.38,7.893-5.07,13.396-5.07c2.043,0,4.023,0.165,5.942,0.495
		C26.397,0.841,28.315,1.352,30.234,2.043z"/>
	<path fill="#FFFFFF" d="M52.28,6.573v12.403h9.858v6.273H52.28v27.733c0,3.522,0.408,5.881,1.228,7.075
		c0.817,1.195,2.279,1.792,4.386,1.792c0.786,0,1.548-0.062,2.288-0.188c0.738-0.125,1.454-0.314,2.146-0.566v6.462
		c-1.29,0.346-2.492,0.605-3.608,0.778c-1.117,0.172-2.178,0.259-3.184,0.259c-4.15,0-7.052-1.068-8.702-3.207
		c-1.651-2.138-2.477-6.604-2.477-13.396V25.25h-7.452v-6.273h7.452V9.024L52.28,6.573z"/>
	<path fill="#FFFFFF" d="M86.213,17.986c6.257,0,11.067,2.201,14.433,6.604c3.364,4.403,5.047,10.707,5.047,18.914
		c0,8.176-1.69,14.464-5.07,18.866s-8.184,6.604-14.409,6.604c-6.258,0-11.077-2.201-14.457-6.604s-5.07-10.69-5.07-18.866
		c0-8.175,1.69-14.472,5.07-18.89C75.136,20.195,79.955,17.986,86.213,17.986z M86.213,24.542c-3.554,0-6.281,1.635-8.184,4.905
		s-2.854,7.955-2.854,14.056c0,6.069,0.951,10.723,2.854,13.961c1.902,3.239,4.63,4.858,8.184,4.858c3.553,0,6.272-1.619,8.16-4.858
		c1.887-3.238,2.83-7.892,2.83-13.961c0-6.101-0.943-10.785-2.83-14.056C92.486,26.177,89.766,24.542,86.213,24.542z"/>
	<path fill="#FFFFFF" d="M149.153,33.833V68.03h-8.018V35.013c0-3.333-0.629-5.825-1.887-7.476
		c-1.259-1.651-3.177-2.478-5.754-2.478c-3.113,0-5.582,1.196-7.405,3.585c-1.824,2.391-2.736,5.66-2.736,9.812v0.283v29.291h-8.018
		V31.24c0-1.823-0.04-3.734-0.118-5.731c-0.079-1.997-0.197-4.174-0.354-6.533h7.358c0.125,1.541,0.251,3.821,0.377,6.839v0.283
		c1.289-2.578,3.066-4.575,5.33-5.99s4.794-2.123,7.594-2.123c4.37,0,7.735,1.376,10.095,4.128
		C147.974,24.865,149.153,28.771,149.153,33.833z"/>
	<path fill="#FFFFFF" d="M193.556,45.625h-27.121c0.157,5.503,1.393,9.677,3.703,12.521c2.312,2.847,5.62,4.27,9.928,4.27
		c1.823,0,3.632-0.259,5.424-0.778c1.792-0.519,3.647-1.312,5.565-2.382l0.189,6.745c-1.762,0.975-3.673,1.698-5.731,2.17
		c-2.06,0.472-4.3,0.708-6.721,0.708c-6.855,0-12.013-2.115-15.471-6.344c-3.459-4.229-5.188-10.542-5.188-18.938
		c0-7.83,1.674-14.056,5.022-18.678c3.35-4.623,7.854-6.935,13.514-6.935c5.188,0,9.323,2.061,12.405,6.18
		c3.081,4.12,4.622,9.653,4.622,16.603c0,1.479-0.008,2.532-0.022,3.16C193.658,44.557,193.619,45.123,193.556,45.625z
		 M185.868,39.918v-0.377c0-4.905-0.787-8.647-2.358-11.227c-1.573-2.577-3.852-3.867-6.839-3.867c-3.113,0-5.526,1.28-7.24,3.844
		c-1.714,2.562-2.744,6.438-3.089,11.626L185.868,39.918L185.868,39.918z"/>
	<path fill="#FFFFFF" d="M250.562,1.006h8.301v28.677h23.253V1.006h8.349V68.03h-8.349V36.948h-23.253v31.083h-8.301V1.006z"/>
	<path fill="#FFFFFF" d="M303.653,18.976h8.019v33.018c0,3.333,0.637,5.824,1.909,7.476c1.273,1.651,3.185,2.476,5.731,2.476
		c3.113,0,5.581-1.202,7.405-3.607c1.822-2.405,2.735-5.714,2.735-9.928v-0.283v-29.15h8.019v36.696c0,2.264,0.031,4.41,0.095,6.438
		c0.062,2.028,0.157,4.003,0.283,5.92h-7.312c-0.095-0.943-0.173-2.531-0.235-4.765c-0.032-1.006-0.063-1.808-0.095-2.406
		c-1.227,2.61-2.972,4.615-5.235,6.015c-2.265,1.398-4.827,2.099-7.688,2.099c-4.371,0-7.734-1.368-10.094-4.104
		c-2.359-2.736-3.537-6.635-3.537-11.697V18.976L303.653,18.976z"/>
	<path fill="#FFFFFF" d="M359.103,6.573v12.403h9.856v6.273h-9.856v27.733c0,3.522,0.408,5.881,1.227,7.075
		c0.817,1.195,2.279,1.792,4.388,1.792c0.785,0,1.548-0.062,2.287-0.188c0.737-0.125,1.453-0.314,2.146-0.566v6.462
		c-1.29,0.346-2.493,0.605-3.608,0.778c-1.116,0.172-2.178,0.259-3.184,0.259c-4.151,0-7.052-1.068-8.702-3.207
		c-1.65-2.138-2.477-6.604-2.477-13.396V25.25h-7.452v-6.273h7.452V9.024L359.103,6.573z"/>
	<path fill="#FFFFFF" d="M385.881,6.573v12.403h9.856v6.273h-9.856v27.733c0,3.522,0.407,5.881,1.227,7.075
		c0.817,1.195,2.279,1.792,4.387,1.792c0.785,0,1.549-0.062,2.287-0.188c0.738-0.125,1.454-0.314,2.146-0.566v6.462
		c-1.29,0.346-2.493,0.605-3.608,0.778c-1.117,0.172-2.178,0.259-3.184,0.259c-4.151,0-7.052-1.068-8.702-3.207
		c-1.651-2.138-2.477-6.604-2.477-13.396V25.25h-7.452v-6.273h7.452V9.024L385.881,6.573z"/>
	<path fill="#FFFFFF" d="M7.76,89.182h5.011c2.277,0,4.007,0.474,5.188,1.418c1.181,0.945,1.771,2.331,1.771,4.157
		c0,1.429-0.331,2.597-0.991,3.504c-0.66,0.908-1.625,1.512-2.893,1.813c1.418,0.29,2.503,0.886,3.255,1.789
		c0.752,0.902,1.128,2.062,1.128,3.479c0,2.342-0.651,4.05-1.958,5.124c-1.305,1.074-3.392,1.611-6.26,1.611H7.76V89.182z
		 M10.532,91.551v7.525h2.046c1.449,0,2.521-0.317,3.214-0.951s1.04-1.617,1.04-2.949c0-1.268-0.365-2.188-1.097-2.763
		c-0.73-0.575-1.928-0.862-3.593-0.862H10.532z M10.532,101.348v8.363h2.046c1.633,0,2.838-0.338,3.617-1.015
		c0.778-0.678,1.168-1.729,1.168-3.158c0-1.439-0.387-2.498-1.159-3.174c-0.773-0.677-1.982-1.016-3.625-1.016L10.532,101.348
		L10.532,101.348z"/>
	<path fill="#FFFFFF" d="M30.471,89.182h2.836v14.744c0,2.17,0.338,3.73,1.015,4.681c0.678,0.951,1.768,1.427,3.271,1.427
		s2.594-0.476,3.271-1.427c0.678-0.949,1.016-2.511,1.016-4.681V89.182h2.707v14.486c0,2.976-0.575,5.175-1.725,6.599
		c-1.148,1.424-2.927,2.135-5.333,2.135c-2.396,0-4.171-0.714-5.324-2.143c-1.155-1.429-1.732-3.625-1.732-6.59L30.471,89.182
		L30.471,89.182z"/>
	<path fill="#FFFFFF" d="M65.444,89.537l-0.063,2.771c-0.56-0.365-1.155-0.642-1.789-0.83c-0.634-0.188-1.289-0.281-1.966-0.281
		c-1.149,0-2.038,0.284-2.667,0.854c-0.628,0.569-0.942,1.37-0.942,2.401c0,1.311,1.145,2.745,3.432,4.302
		c0.42,0.279,0.741,0.5,0.968,0.661c1.61,1.105,2.723,2.135,3.335,3.086c0.611,0.95,0.918,2.064,0.918,3.343
		c0,1.966-0.626,3.55-1.877,4.753s-2.893,1.805-4.922,1.805c-0.839,0-1.646-0.091-2.426-0.273c-0.778-0.184-1.501-0.451-2.167-0.806
		l0.274-2.739c0.655,0.473,1.362,0.833,2.119,1.08c0.758,0.247,1.534,0.371,2.329,0.371c1.182,0,2.1-0.317,2.755-0.951
		s0.982-1.516,0.982-2.644c0-0.913-0.23-1.703-0.692-2.368c-0.462-0.666-1.596-1.606-3.4-2.82c-1.848-1.257-3.063-2.317-3.649-3.184
		c-0.585-0.863-0.878-1.86-0.878-2.988c0-1.849,0.585-3.35,1.756-4.503c1.171-1.154,2.695-1.732,4.575-1.732
		c0.698,0,1.375,0.057,2.03,0.169C64.134,89.126,64.789,89.3,65.444,89.537z"/>
	<path fill="#FFFFFF" d="M77.134,89.182h2.836v22.897h-2.836V89.182z"/>
	<path fill="#FFFFFF" d="M91.691,89.182h3.368l8.846,18.998V89.182h2.595v22.897h-3.464l-8.701-18.772v18.772h-2.644V89.182z"/>
	<path fill="#FFFFFF" d="M118.253,89.182h10.425v2.369h-7.589v7.525h7.187v2.417h-7.187v8.218h7.992v2.369h-10.828V89.182z"/>
	<path fill="#FFFFFF" d="M149.069,89.537l-0.063,2.771c-0.56-0.365-1.155-0.642-1.789-0.83c-0.634-0.188-1.289-0.281-1.966-0.281
		c-1.149,0-2.038,0.284-2.667,0.854c-0.628,0.569-0.942,1.37-0.942,2.401c0,1.311,1.145,2.745,3.432,4.302
		c0.42,0.279,0.741,0.5,0.968,0.661c1.61,1.105,2.723,2.135,3.335,3.086c0.611,0.95,0.918,2.064,0.918,3.343
		c0,1.966-0.626,3.55-1.877,4.753s-2.893,1.805-4.922,1.805c-0.839,0-1.646-0.091-2.426-0.273c-0.778-0.184-1.501-0.451-2.167-0.806
		l0.274-2.739c0.655,0.473,1.362,0.833,2.119,1.08c0.758,0.247,1.534,0.371,2.329,0.371c1.182,0,2.1-0.317,2.755-0.951
		s0.982-1.516,0.982-2.644c0-0.913-0.23-1.703-0.692-2.368c-0.462-0.666-1.595-1.606-3.4-2.82c-1.848-1.257-3.063-2.317-3.649-3.184
		c-0.585-0.863-0.878-1.86-0.878-2.988c0-1.849,0.585-3.35,1.756-4.503c1.171-1.154,2.695-1.732,4.575-1.732
		c0.698,0,1.375,0.057,2.03,0.169C147.759,89.126,148.414,89.3,149.069,89.537z"/>
	<path fill="#FFFFFF" d="M169.412,89.537l-0.064,2.771c-0.559-0.365-1.155-0.642-1.789-0.83c-0.634-0.188-1.289-0.281-1.966-0.281
		c-1.149,0-2.038,0.284-2.667,0.854c-0.628,0.569-0.942,1.37-0.942,2.401c0,1.311,1.145,2.745,3.433,4.302
		c0.419,0.279,0.74,0.5,0.967,0.661c1.611,1.105,2.723,2.135,3.335,3.086c0.612,0.95,0.918,2.064,0.918,3.343
		c0,1.966-0.626,3.55-1.877,4.753s-2.892,1.805-4.922,1.805c-0.838,0-1.646-0.091-2.425-0.273c-0.779-0.184-1.501-0.451-2.167-0.806
		l0.273-2.739c0.655,0.473,1.362,0.833,2.119,1.08c0.758,0.247,1.534,0.371,2.329,0.371c1.182,0,2.1-0.317,2.755-0.951
		s0.983-1.516,0.983-2.644c0-0.913-0.231-1.703-0.693-2.368c-0.462-0.666-1.595-1.606-3.4-2.82
		c-1.848-1.257-3.063-2.317-3.649-3.184c-0.585-0.863-0.878-1.86-0.878-2.988c0-1.849,0.585-3.35,1.756-4.503
		c1.171-1.154,2.696-1.732,4.576-1.732c0.697,0,1.375,0.057,2.029,0.169C168.101,89.126,168.756,89.3,169.412,89.537z"/>
	<path fill="#FFFFFF" d="M204.956,89.537l-0.064,2.771c-0.559-0.365-1.155-0.642-1.789-0.83c-0.634-0.188-1.289-0.281-1.966-0.281
		c-1.149,0-2.038,0.284-2.667,0.854c-0.628,0.569-0.942,1.37-0.942,2.401c0,1.311,1.145,2.745,3.433,4.302
		c0.419,0.279,0.741,0.5,0.967,0.661c1.611,1.105,2.723,2.135,3.335,3.086c0.612,0.95,0.918,2.064,0.918,3.343
		c0,1.966-0.626,3.55-1.877,4.753s-2.892,1.805-4.922,1.805c-0.838,0-1.646-0.091-2.425-0.273c-0.779-0.184-1.501-0.451-2.167-0.806
		l0.273-2.739c0.655,0.473,1.362,0.833,2.119,1.08c0.758,0.247,1.534,0.371,2.329,0.371c1.182,0,2.1-0.317,2.755-0.951
		s0.983-1.516,0.983-2.644c0-0.913-0.231-1.703-0.693-2.368c-0.462-0.666-1.595-1.606-3.4-2.82
		c-1.848-1.257-3.063-2.317-3.649-3.184c-0.585-0.863-0.878-1.86-0.878-2.988c0-1.849,0.585-3.35,1.756-4.503
		c1.171-1.154,2.696-1.732,4.576-1.732c0.698,0,1.375,0.057,2.029,0.169C203.646,89.126,204.301,89.3,204.956,89.537z"/>
	<path fill="#FFFFFF" d="M223.961,88.844c2.686,0,4.762,1.023,6.228,3.069c1.467,2.047,2.2,4.95,2.2,8.709
		c0,3.771-0.733,6.676-2.2,8.717c-1.466,2.041-3.542,3.062-6.228,3.062c-2.675,0-4.745-1.021-6.212-3.062
		c-1.466-2.041-2.199-4.947-2.199-8.717c0-3.76,0.733-6.663,2.199-8.709C219.216,89.867,221.286,88.844,223.961,88.844z
		 M223.961,91.229c-1.762,0-3.103,0.798-4.021,2.394c-0.918,1.596-1.377,3.929-1.377,7.001c0,3.083,0.459,5.422,1.377,7.017
		c0.919,1.596,2.26,2.394,4.021,2.394s3.104-0.804,4.027-2.409c0.925-1.606,1.387-3.94,1.387-7.001c0-3.051-0.462-5.379-1.387-6.985
		C227.065,92.032,225.723,91.229,223.961,91.229z"/>
	<path fill="#FFFFFF" d="M243.014,89.182h2.836v20.416h7.525v2.481h-10.361V89.182z"/>
	<path fill="#FFFFFF" d="M261.842,89.182h2.836v14.744c0,2.17,0.338,3.73,1.015,4.681c0.678,0.951,1.768,1.427,3.271,1.427
		s2.594-0.476,3.271-1.427c0.678-0.949,1.016-2.511,1.016-4.681V89.182h2.707v14.486c0,2.976-0.575,5.175-1.725,6.599
		c-1.148,1.424-2.927,2.135-5.333,2.135c-2.396,0-4.171-0.714-5.324-2.143c-1.155-1.429-1.732-3.625-1.732-6.59L261.842,89.182
		L261.842,89.182z"/>
	<path fill="#FFFFFF" d="M285.568,89.182h13.326v2.434h-5.237v20.464h-2.852V91.615h-5.237V89.182z"/>
	<path fill="#FFFFFF" d="M308.602,89.182h2.836v22.897h-2.836V89.182z"/>
	<path fill="#FFFFFF" d="M330.475,88.844c2.686,0,4.762,1.023,6.228,3.069c1.468,2.047,2.199,4.95,2.199,8.709
		c0,3.771-0.731,6.676-2.199,8.717c-1.466,2.041-3.542,3.062-6.228,3.062c-2.675,0-4.745-1.021-6.212-3.062
		c-1.466-2.041-2.199-4.947-2.199-8.717c0-3.76,0.733-6.663,2.199-8.709S327.8,88.844,330.475,88.844z M330.475,91.229
		c-1.762,0-3.102,0.798-4.021,2.394c-0.918,1.596-1.377,3.929-1.377,7.001c0,3.083,0.459,5.422,1.377,7.017
		c0.92,1.596,2.26,2.394,4.021,2.394s3.104-0.804,4.028-2.409c0.924-1.606,1.386-3.94,1.386-7.001c0-3.051-0.462-5.379-1.386-6.985
		C333.578,92.032,332.236,91.229,330.475,91.229z"/>
	<path fill="#FFFFFF" d="M349.528,89.182h3.368l8.846,18.998V89.182h2.595v22.897h-3.465l-8.7-18.772v18.772h-2.644V89.182
		L349.528,89.182z"/>
	<path fill="#FFFFFF" d="M385.323,89.537l-0.063,2.771c-0.561-0.365-1.155-0.642-1.789-0.83c-0.634-0.188-1.289-0.281-1.966-0.281
		c-1.149,0-2.038,0.284-2.667,0.854c-0.628,0.569-0.942,1.37-0.942,2.401c0,1.311,1.145,2.745,3.433,4.302
		c0.418,0.279,0.74,0.5,0.968,0.661c1.61,1.105,2.723,2.135,3.335,3.086c0.611,0.95,0.919,2.064,0.919,3.343
		c0,1.966-0.626,3.55-1.878,4.753c-1.251,1.203-2.893,1.805-4.923,1.805c-0.839,0-1.646-0.091-2.426-0.273
		c-0.777-0.184-1.501-0.451-2.167-0.806l0.273-2.739c0.655,0.473,1.362,0.833,2.119,1.08c0.758,0.247,1.532,0.371,2.328,0.371
		c1.182,0,2.101-0.317,2.756-0.951s0.981-1.516,0.981-2.644c0-0.913-0.229-1.703-0.691-2.368c-0.462-0.666-1.596-1.606-3.399-2.82
		c-1.849-1.257-3.063-2.317-3.649-3.184c-0.586-0.863-0.879-1.86-0.879-2.988c0-1.849,0.586-3.35,1.758-4.503
		c1.17-1.155,2.694-1.732,4.576-1.732c0.696,0,1.373,0.057,2.028,0.169C384.011,89.126,384.666,89.3,385.323,89.537z"/>
</g>
<polygon fill="#FFFFFF" points="209.15,68.733 204.201,63.783 233.619,34.367 204.201,4.95 209.15,0 243.518,34.367 "/>
</svg>
